HIERARCHY
ROOT Hips
{
	OFFSET 0.00000 0.00000 0.00000
	CHANNELS 6 Xposition Yposition Zposition Zrotation Yrotation Xrotation 
	JOINT LHipJoint
	{
		OFFSET 0 0 0
		CHANNELS 3 Zrotation Yrotation Xrotation
		JOINT LeftHip
		{
			OFFSET 1.64549 -1.70879 0.84566
			CHANNELS 3 Zrotation Yrotation Xrotation
			JOINT LeftKnee
			{
				OFFSET 2.24963 -6.18082 0.00000
				CHANNELS 3 Zrotation Yrotation Xrotation
				JOINT LeftAnkle
				{
					OFFSET 2.71775 -7.46697 0.00000
					CHANNELS 3 Zrotation Yrotation Xrotation
					JOINT LeftToe
					{
						OFFSET 0.18768 -0.51564 2.24737
						CHANNELS 3 Zrotation Yrotation Xrotation
						End Site
						{
							OFFSET 0.00000 -0.00000 1.15935
						}
					}
				}
			}
		}
	}
	JOINT RHipJoint
	{
		OFFSET 0 0 0
		CHANNELS 3 Zrotation Yrotation Xrotation
		JOINT RightHip
		{
			OFFSET -1.58830 -1.70879 0.84566
			CHANNELS 3 Zrotation Yrotation Xrotation
			JOINT RightKnee
			{
				OFFSET -2.25006 -6.18201 0.00000
				CHANNELS 3 Zrotation Yrotation Xrotation
				JOINT RightAnkle
				{
					OFFSET -2.72829 -7.49593 0.00000
					CHANNELS 3 Zrotation Yrotation Xrotation
					JOINT RightToe
					{
						OFFSET -0.21541 -0.59185 2.10643
						CHANNELS 3 Zrotation Yrotation Xrotation
						End Site
						{
							OFFSET -0.00000 -0.00000 1.09838
						}
					}
				}
			}
		}
	}
	JOINT lowerback
	{
		OFFSET 0 0 0
		CHANNELS 3 Zrotation Yrotation Xrotation
		JOINT Chest
		{
			OFFSET 0.03142 2.10496 -0.11038
			CHANNELS 3 Zrotation Yrotation Xrotation
			JOINT Chest2
			{
				OFFSET -0.01863 2.10897 -0.06956
				CHANNELS 3 Zrotation Yrotation Xrotation
				JOINT lowerneck
				{
					OFFSET 0 0 0
					CHANNELS 3 Zrotation Yrotation Xrotation
					JOINT Neck
					{
						OFFSET -0.02267 1.73238 0.00451
						CHANNELS 3 Zrotation Yrotation Xrotation
						JOINT Head
						{
							OFFSET -0.05808 1.54724 -0.61749
							CHANNELS 3 Zrotation Yrotation Xrotation
							End Site
							{
								OFFSET -0.01396 1.71468 -0.21082
							}
						}
					}
				}
				JOINT LeftCollar
				{
					OFFSET 0 0 0
					CHANNELS 3 Zrotation Yrotation Xrotation
					JOINT LeftShoulder
					{
						OFFSET 3.44898 0.50298 0.21920
CHANNELS 3 Zrotation Xrotation Yrotation
						JOINT LeftElbow
						{
OFFSET 0 -5.419170 -0.000000
CHANNELS 3 Zrotation Xrotation Yrotation
							JOINT LeftWrist
							{
OFFSET 0 -2.443730 0.000000
CHANNELS 3 Zrotation Xrotation Yrotation
								JOINT lhand
								{
									OFFSET 0 0 0
CHANNELS 3 Zrotation Xrotation Yrotation
									JOINT LFingers
									{
OFFSET 0 -0.727500 0.000000
CHANNELS 3 Zrotation Xrotation Yrotation
										End Site
										{
OFFSET 0 -0.586530 0.000000
										}
									}
								}
								JOINT LThumb
								{
OFFSET 0 0.000000 0.000000
CHANNELS 3 Zrotation Xrotation Yrotation
									End Site
									{
OFFSET 0 -0.595490 0.595490
									}
								}
							}
						}
					}
				}
				JOINT RightCollar
				{
					OFFSET 0 0 0
					CHANNELS 3 Zrotation Yrotation Xrotation
					JOINT RightShoulder
					{
						OFFSET -3.23015 0.55830 0.31051
CHANNELS 3 Zrotation Xrotation Yrotation
						JOINT RightElbow
						{
OFFSET 0 -5.589760 0.000140
CHANNELS 3 Zrotation Xrotation Yrotation
							JOINT RightWrist
							{
OFFSET 0 -2.480600 0.000000
CHANNELS 3 Zrotation Xrotation Yrotation
								JOINT rhand
								{
									OFFSET 0 0 0
CHANNELS 3 Zrotation Xrotation Yrotation
									JOINT RFingers
									{
OFFSET 0 -0.816010 0.000000
CHANNELS 3 Zrotation Xrotation Yrotation
										End Site
										{
OFFSET 0 -0.657890 0.000000
										}
									}
								}
								JOINT RThumb
								{
OFFSET 0 0.000000 0.000000
CHANNELS 3 Zrotation Xrotation Yrotation
									End Site
									{
OFFSET 0 -0.667930 0.667930
									}
								}
							}
						}
					}
				}
			}
		}
	}
}
MOTION
Frames: 10
Frame Time: 0.008333333333333333
-1.320338 16.383131 -10.509974 2.688594 17.252425 28.127343 0.000000 0.000000 0.000000 -16.674874 -22.331313 -43.813406 5.005349 13.389861 40.845876 2.332446 2.816628 -29.975236 0.151957 2.511165 6.920626 0.000000 0.000000 0.000000 -23.111814 41.570808 -51.604457 -4.285813 -12.531223 37.638317 -1.129436 8.393131 -19.036617 -1.085034 6.618162 -18.589783 4.884023 -0.531527 3.548287 2.539614 -0.188645 -4.990687 -0.055432 -0.271634 -7.233121 -3.910103 -2.618249 -8.726303 6.255696 -3.828381 12.443928 2.319707 -1.622846 5.375009 0.000000 0.000000 0.000000 78.796735 18.222289 -18.619490 8.566163 -14.466323 1.089192 11.793872 50.506323 -23.229926 0.000000 0.000000 0.000000 -7.125000 0.000000 0.000000 -17.829653 52.768162 3.497105 0.000000 0.000000 0.000000 -89.743948 7.544957 30.396080 -9.611727 -16.129958 -1.365059 8.001365 -11.978133 13.840370 0.000000 0.000000 0.000000 7.125000 0.000000 0.000000 30.993489 41.581496 2.933436
-1.464804 16.366666 -10.467177 2.942824 20.617618 29.110828 0.000000 0.000000 0.000000 -15.188548 -23.060621 -45.507195 5.152576 13.553548 41.477569 2.078128 1.225967 -27.730437 0.071175 1.720268 4.733119 0.000000 0.000000 0.000000 -21.871125 41.209396 -50.886423 -4.502322 -12.800420 38.625828 -1.470246 3.389278 -22.076209 -1.229310 7.029849 -19.804755 5.906144 -0.333057 4.632182 2.735854 0.240610 -4.665770 -0.459242 -0.108356 -7.507672 -4.689140 -3.636461 -9.276235 7.025287 -5.103447 10.916561 2.582437 -2.237233 5.104483 0.000000 0.000000 0.000000 78.286093 18.787408 -17.283958 8.471415 -14.314050 1.065676 10.910914 51.635483 -24.270272 0.000000 0.000000 0.000000 -7.125000 0.000000 0.000000 -19.229476 53.600870 4.187799 0.000000 0.000000 0.000000 -88.526083 3.741561 30.656007 -9.580619 -16.080796 -1.356423 9.111197 -11.331986 13.808230 0.000000 0.000000 0.000000 7.125000 0.000000 0.000000 31.860250 41.436244 3.167727
-1.618909 16.378850 -10.416535 3.447654 24.860261 30.435673 0.000000 0.000000 0.000000 -13.527532 -24.183261 -47.250560 5.164494 13.566741 41.528800 1.707648 0.162924 -24.790772 0.005297 -0.410481 -1.127999 0.000000 0.000000 0.000000 -20.536154 40.629299 -50.323494 -4.686375 -13.021634 39.449616 -1.546276 -3.112618 -24.791897 -1.599207 7.975915 -22.641031 7.670326 -0.384136 5.680822 2.770832 0.426120 -4.524264 -1.420882 -0.119998 -7.971324 -5.721730 -4.835351 -9.910685 8.328148 -6.635008 9.572782 3.025518 -2.949377 4.971330 0.000000 0.000000 0.000000 78.333605 19.252597 -17.467108 8.427891 -14.244036 1.054920 8.079793 50.496007 -24.483774 0.000000 0.000000 0.000000 -7.125000 0.000000 0.000000 -22.089762 53.293517 4.686201 0.000000 0.000000 0.000000 -86.745407 -0.027765 29.419710 -9.517284 -15.981073 -1.339011 8.735340 -6.634298 11.792130 0.000000 0.000000 0.000000 7.125000 0.000000 0.000000 30.714189 39.723030 4.498649
-1.821329 16.406403 -10.359959 4.646681 28.326931 31.937325 0.000000 0.000000 0.000000 -12.570506 -24.775749 -48.703758 5.049735 13.439499 41.036888 1.312981 -0.873079 -21.398502 0.320217 -3.616222 -10.001213 0.000000 0.000000 0.000000 -20.657225 41.376517 -50.089899 -4.761445 -13.110000 39.781814 -1.270758 -9.298345 -26.524749 -1.298647 7.219710 -20.367967 7.996991 -0.195811 7.031950 2.827811 0.858746 -4.408928 -1.600451 0.058358 -8.605076 -6.657526 -6.053788 -10.051400 9.267236 -8.140214 7.952747 3.344951 -3.685472 4.686565 0.000000 0.000000 0.000000 77.848840 19.221315 -16.259542 8.314252 -14.061018 1.027143 7.976923 51.826337 -25.588835 0.000000 0.000000 0.000000 -7.125000 0.000000 0.000000 -22.842081 54.292785 5.431627 0.000000 0.000000 0.000000 -85.487129 -4.219225 29.267959 -9.142467 -15.387175 -1.237675 9.375934 -3.129377 10.334674 0.000000 0.000000 0.000000 7.125000 0.000000 0.000000 30.632599 38.388895 5.634774
-1.989594 16.489316 -10.285796 4.844511 32.925947 33.348643 0.000000 0.000000 0.000000 -9.775812 -25.989718 -50.302563 4.857446 13.221412 40.203130 0.922282 -3.314366 -17.335150 0.539080 -4.703851 -13.065735 0.000000 0.000000 0.000000 -19.279293 41.198070 -49.587402 -4.749964 -13.096544 39.730794 -0.875694 -14.157996 -27.860705 -0.862919 5.921673 -16.557921 10.609342 -0.160884 7.848011 3.033007 1.347523 -4.532444 -2.899989 0.125502 -9.179910 -7.752458 -7.389287 -9.924329 10.437582 -9.804190 6.365566 3.749196 -4.500854 4.433409 0.000000 0.000000 0.000000 77.837216 18.906183 -16.207352 8.302506 -14.042066 1.024243 4.706809 50.170654 -24.495464 0.000000 0.000000 0.000000 -7.125000 0.000000 0.000000 -25.305692 52.714292 5.062316 0.000000 0.000000 0.000000 -84.138236 -8.014580 29.195669 -9.218773 -15.508435 -1.257980 10.045197 0.161914 8.825290 0.000000 0.000000 0.000000 7.125000 0.000000 0.000000 30.569777 37.007301 6.815578
-2.208291 16.537033 -10.237831 5.900867 37.136589 36.085672 0.000000 0.000000 0.000000 -7.037636 -26.953298 -53.311581 4.575222 12.888719 38.953397 0.457224 -5.768981 -12.094225 1.233018 -7.035639 -19.823396 0.000000 0.000000 0.000000 -19.224932 39.634850 -50.882074 -4.744458 -13.090154 39.706853 -0.489015 -17.510995 -28.694448 -0.699479 5.345279 -14.896178 12.548086 -0.018341 8.610896 3.141448 1.980670 -5.065833 -3.953530 0.248269 -10.145493 -9.258916 -8.712281 -9.941844 11.747176 -11.402214 4.962367 4.250289 -5.281150 4.326197 0.000000 0.000000 0.000000 77.490170 18.079799 -15.110189 8.162657 -13.816213 0.990583 0.939558 50.107383 -23.096388 0.000000 0.000000 0.000000 -7.125000 0.000000 0.000000 -27.970764 50.842256 4.315667 0.000000 0.000000 0.000000 -83.015378 -11.590237 27.996874 -9.594835 -16.103333 -1.360447 9.998906 5.705379 6.623731 0.000000 0.000000 0.000000 7.125000 0.000000 0.000000 29.758251 35.073227 8.204455
-2.420028 16.608011 -10.110406 8.220773 41.030311 40.108725 0.000000 0.000000 0.000000 -4.815788 -27.425525 -56.354489 4.157550 12.366746 37.042785 -0.112292 -9.893053 -4.811786 1.283961 -7.178968 -20.247379 0.000000 0.000000 0.000000 -20.294186 38.121904 -52.294554 -4.724222 -13.066313 39.617236 -0.426094 -19.765432 -30.963651 -0.388572 3.998469 -11.072914 13.637910 0.376927 8.271489 2.933008 2.659921 -5.670090 -4.878615 0.451683 -10.498646 -10.270357 -10.248682 -9.992742 12.644906 -13.290019 3.425187 4.502972 -6.214305 4.200128 0.000000 0.000000 0.000000 77.243292 16.753903 -13.899542 8.313493 -14.059712 1.026995 -0.799771 50.053106 -23.285632 0.000000 0.000000 0.000000 -7.125000 0.000000 0.000000 -29.661081 50.731218 4.534106 0.000000 0.000000 0.000000 -82.516048 -14.893986 28.905968 -9.940641 -16.646613 -1.457954 10.409586 7.847964 4.775103 0.000000 0.000000 0.000000 7.125000 0.000000 0.000000 29.449060 33.406822 9.480101
-2.617724 16.674395 -9.923315 11.632661 43.768964 45.256365 0.000000 0.000000 0.000000 -2.347659 -28.506155 -59.311084 3.694499 11.741734 34.825169 -0.336132 -10.298003 3.556997 0.464008 -4.239811 -11.775568 0.000000 0.000000 0.000000 -21.923128 35.784610 -53.925526 -4.647988 -12.976049 39.278704 -0.485143 -20.778114 -32.571670 -0.170713 2.656460 -7.324060 13.478058 0.717131 7.397955 2.499696 2.996583 -6.393907 -5.292115 0.569596 -10.720894 -11.023802 -11.362109 -9.818446 13.590343 -14.653104 1.924735 4.785312 -6.892767 4.006358 0.000000 0.000000 0.000000 77.771738 16.493719 -17.363243 8.359041 -14.133192 1.038080 -1.142216 45.383201 -23.709039 0.000000 0.000000 0.000000 -7.125000 0.000000 0.000000 -30.227804 51.043916 4.882876 0.000000 0.000000 0.000000 -81.875447 -19.595846 29.029398 -9.958271 -16.674224 -1.463006 10.608815 10.558658 2.399719 0.000000 0.000000 0.000000 7.125000 0.000000 0.000000 28.865773 31.280827 10.957806
-2.792962 16.744209 -9.768568 15.163196 46.036983 51.140268 0.000000 0.000000 0.000000 0.665628 -29.921299 -61.854214 3.272054 11.122294 32.694134 -0.073139 -5.726377 5.503339 0.081117 1.757210 4.836579 0.000000 0.000000 0.000000 -23.640097 32.787792 -56.280052 -4.545456 -12.852848 38.820126 -0.317578 -21.915193 -32.952885 -0.109159 2.124235 -5.849324 13.404537 1.065822 5.818801 2.174530 3.246568 -7.055827 -5.587909 0.684133 -10.462921 -11.470751 -12.162197 -9.892204 14.362971 -15.591771 0.524666 4.999180 -7.357553 3.813449 0.000000 0.000000 0.000000 77.764330 16.797593 -20.970854 8.451824 -14.282590 1.060793 -1.729990 40.202879 -23.581359 0.000000 0.000000 0.000000 -7.125000 0.000000 0.000000 -30.679074 50.839535 4.803276 0.000000 0.000000 0.000000 -81.890338 -25.732272 26.948828 -9.664353 -16.212770 -1.379752 10.878539 14.627908 1.052892 0.000000 0.000000 0.000000 7.125000 0.000000 0.000000 28.667783 30.061496 11.838214
-2.944200 16.814415 -9.595786 18.646234 47.996225 56.251212 0.000000 0.000000 0.000000 2.535343 -30.884745 -61.538474 2.905467 10.539787 30.743747 -0.030104 -5.020038 -2.109217 1.454934 7.581016 21.468020 0.000000 0.000000 0.000000 -27.200038 33.773284 -57.363285 -4.424019 -12.704194 38.270960 -0.620119 -24.252509 -37.508630 -0.010808 -0.474707 1.304508 13.487684 1.276794 4.880327 1.915261 3.433086 -7.582386 -5.907393 0.746445 -10.450441 -12.314731 -13.234803 -9.532361 15.682306 -16.901326 -1.054356 5.407437 -8.014991 3.649491 0.000000 0.000000 0.000000 77.102754 16.850567 -20.467795 8.426988 -14.242593 1.054712 0.386788 40.314973 -26.468751 0.000000 0.000000 0.000000 -7.125000 0.000000 0.000000 -30.632450 53.686391 7.058838 0.000000 0.000000 0.000000 -82.069700 -32.308494 25.008006 -9.550337 -16.033165 -1.348114 11.880947 17.885260 1.236907 0.000000 0.000000 0.000000 7.125000 0.000000 0.000000 29.412737 30.160249 12.154571
